<?xml version="1.0" encoding="UTF-8" standalone="no"?>
<svg
   xmlns:dc="http://purl.org/dc/elements/1.1/"
   xmlns:cc="http://creativecommons.org/ns#"
   xmlns:rdf="http://www.w3.org/1999/02/22-rdf-syntax-ns#"
   xmlns:svg="http://www.w3.org/2000/svg"
   xmlns="http://www.w3.org/2000/svg"
   viewBox="0 0 200 66.666664"
   height="66.666664"
   width="200"
   xml:space="preserve"
   id="svg2"
   version="1.1"><metadata
     id="metadata8"><rdf:RDF><cc:Work
         rdf:about=""><dc:format>image/svg+xml</dc:format><dc:type
           rdf:resource="http://purl.org/dc/dcmitype/StillImage" /></cc:Work></rdf:RDF></metadata><defs
     id="defs6"><clipPath
       id="clipPath18"
       clipPathUnits="userSpaceOnUse"><path
         id="path16"
         d="M 0,50 H 150 V 0 H 0 Z" /></clipPath><clipPath
       id="clipPath54"
       clipPathUnits="userSpaceOnUse"><path
         id="path52"
         d="m 7.682,39 c -2.201,0 -4,-1.799 -4,-4 v 0 -20 c 0,-2.2 1.799,-4 4,-4 v 0 h 19.999 c 2.201,0 4.001,1.8 4.001,4 v 0 20 c 0,2.201 -1.8,4 -4.001,4 v 0 z" /></clipPath><linearGradient
       id="linearGradient64"
       spreadMethod="pad"
       gradientTransform="matrix(0,27.999512,27.999512,0,17.681641,11)"
       gradientUnits="userSpaceOnUse"
       y2="0"
       x2="1"
       y1="0"
       x1="0"><stop
         id="stop60"
         offset="0"
         style="stop-opacity:1;stop-color:#e95b5b" /><stop
         id="stop62"
         offset="1"
         style="stop-opacity:1;stop-color:#d872dd" /></linearGradient><clipPath
       id="clipPath74"
       clipPathUnits="userSpaceOnUse"><path
         id="path72"
         d="M 0,50 H 150 V 0 H 0 Z" /></clipPath></defs><g
     transform="matrix(1.3333333,0,0,-1.3333333,0,66.666667)"
     id="g10"><g
       id="g12"><g
         clip-path="url(#clipPath18)"
         id="g14"><g
           transform="translate(46.999,24.5059)"
           id="g20"><path
             id="path22"
             style="fill:#edf2f9;fill-opacity:1;fill-rule:nonzero;stroke:none"
             d="m 0,0 c 0,0.725 -0.095,1.378 -0.282,1.959 -0.189,0.58 -0.459,1.072 -0.812,1.476 -0.351,0.403 -0.783,0.711 -1.294,0.926 -0.51,0.215 -1.091,0.323 -1.742,0.323 -0.659,0 -1.245,-0.108 -1.759,-0.323 C -6.402,4.146 -6.836,3.838 -7.188,3.435 -7.541,3.031 -7.812,2.539 -7.999,1.959 -8.188,1.378 -8.28,0.725 -8.28,0 c 0,-0.732 0.092,-1.389 0.281,-1.97 0.187,-0.581 0.458,-1.073 0.811,-1.476 0.352,-0.404 0.786,-0.71 1.299,-0.921 0.514,-0.213 1.1,-0.319 1.759,-0.319 0.651,0 1.232,0.106 1.742,0.319 0.511,0.211 0.943,0.517 1.294,0.921 0.353,0.403 0.623,0.895 0.812,1.476 C -0.095,-1.389 0,-0.732 0,0 M 3.485,0 C 3.485,-1.063 3.302,-2.049 2.937,-2.963 2.57,-3.876 2.055,-4.67 1.39,-5.345 0.725,-6.02 -0.076,-6.549 -1.013,-6.932 -1.949,-7.314 -2.989,-7.506 -4.13,-7.506 c -1.142,0 -2.183,0.192 -3.124,0.574 -0.94,0.383 -1.745,0.912 -2.412,1.587 -0.669,0.675 -1.186,1.469 -1.552,2.382 -0.365,0.914 -0.549,1.9 -0.549,2.963 0,1.061 0.184,2.048 0.549,2.961 0.366,0.913 0.883,1.706 1.552,2.377 0.667,0.672 1.472,1.199 2.412,1.582 0.941,0.383 1.982,0.574 3.124,0.574 1.141,0 2.181,-0.193 3.117,-0.579 C -0.076,6.529 0.725,6 1.39,5.328 2.055,4.656 2.57,3.864 2.937,2.951 3.302,2.037 3.485,1.054 3.485,0" /></g><g
           transform="translate(62.8281,24.5059)"
           id="g24"><path
             id="path26"
             style="fill:#edf2f9;fill-opacity:1;fill-rule:nonzero;stroke:none"
             d="M 0,0 C 0,0.725 -0.095,1.379 -0.282,1.964 -0.47,2.548 -0.74,3.043 -1.093,3.449 -1.445,3.855 -1.877,4.168 -2.389,4.387 -2.898,4.604 -3.479,4.714 -4.13,4.714 h -2.277 v -9.44 h 2.277 c 0.651,0 1.232,0.11 1.741,0.328 0.512,0.218 0.944,0.531 1.296,0.937 0.353,0.406 0.623,0.902 0.811,1.485 C -0.095,-1.391 0,-0.732 0,0 M 3.485,0 C 3.485,-1.063 3.303,-2.041 2.937,-2.938 2.57,-3.834 2.056,-4.609 1.391,-5.264 0.726,-5.919 -0.075,-6.43 -1.012,-6.795 -1.949,-7.162 -2.988,-7.344 -4.13,-7.344 H -9.832 V 7.333 h 5.702 c 1.142,0 2.181,-0.185 3.118,-0.554 C -0.075,6.41 0.726,5.899 1.391,5.248 2.056,4.596 2.57,3.822 2.937,2.926 3.303,2.029 3.485,1.054 3.485,0" /></g><g
           transform="translate(72.5684,22.7725)"
           id="g28"><path
             id="path30"
             style="fill:#edf2f9;fill-opacity:1;fill-rule:nonzero;stroke:none"
             d="M 0,0 H 4.01 L 2.66,4.02 C 2.56,4.274 2.453,4.575 2.339,4.921 2.224,5.267 2.109,5.642 1.995,6.044 1.888,5.635 1.778,5.255 1.669,4.906 1.558,4.557 1.452,4.255 1.351,3.999 Z m 9.431,-5.61 h -2.64 c -0.296,0 -0.534,0.068 -0.715,0.205 -0.182,0.138 -0.32,0.314 -0.413,0.529 L 4.796,-2.317 H -0.785 L -1.65,-4.876 C -1.726,-5.063 -1.857,-5.233 -2.049,-5.385 -2.24,-5.536 -2.477,-5.61 -2.76,-5.61 H -5.418 L 0.263,9.066 h 3.485 z" /></g><g
           transform="translate(87.5684,23.3867)"
           id="g32"><path
             id="path34"
             style="fill:#edf2f9;fill-opacity:1;fill-rule:nonzero;stroke:none"
             d="m 0,0 v -3.656 h 2.398 c 0.451,0 0.818,0.056 1.104,0.171 0.285,0.114 0.509,0.262 0.67,0.443 0.16,0.181 0.271,0.386 0.332,0.614 0.06,0.229 0.091,0.461 0.091,0.696 0,0.268 -0.035,0.509 -0.107,0.724 -0.069,0.215 -0.19,0.397 -0.361,0.545 C 3.954,-0.315 3.729,-0.201 3.445,-0.121 3.164,-0.04 2.809,0 2.378,0 Z m 0,2.277 h 1.774 c 0.376,0 0.715,0.027 1.018,0.08 0.302,0.054 0.559,0.149 0.77,0.283 0.211,0.133 0.373,0.319 0.484,0.553 0.11,0.236 0.166,0.532 0.166,0.887 0,0.35 -0.044,0.64 -0.132,0.871 C 3.994,5.184 3.859,5.369 3.678,5.511 3.497,5.652 3.267,5.752 2.987,5.813 2.709,5.873 2.378,5.904 1.996,5.904 H 0 Z M -3.404,-6.225 V 8.452 h 5.4 C 3.01,8.452 3.873,8.358 4.584,8.17 5.296,7.982 5.878,7.717 6.327,7.375 6.776,7.031 7.104,6.615 7.309,6.125 7.515,5.635 7.617,5.088 7.617,4.483 7.617,4.154 7.569,3.837 7.476,3.531 7.382,3.226 7.234,2.938 7.031,2.67 6.831,2.4 6.572,2.158 6.257,1.939 5.94,1.721 5.562,1.531 5.118,1.371 6.085,1.135 6.801,0.754 7.264,0.227 7.728,-0.301 7.959,-0.977 7.959,-1.803 7.959,-2.428 7.838,-3.009 7.597,-3.546 7.354,-4.083 7,-4.551 6.533,-4.951 6.066,-5.351 5.491,-5.663 4.807,-5.888 4.121,-6.113 3.339,-6.225 2.459,-6.225 Z" /></g><g
           transform="translate(109.5811,24.5059)"
           id="g36"><path
             id="path38"
             style="fill:#edf2f9;fill-opacity:1;fill-rule:nonzero;stroke:none"
             d="m 0,0 c 0,0.725 -0.095,1.378 -0.282,1.959 -0.189,0.58 -0.459,1.072 -0.811,1.476 -0.353,0.403 -0.785,0.711 -1.295,0.926 -0.51,0.215 -1.091,0.323 -1.743,0.323 -0.658,0 -1.244,-0.108 -1.758,-0.323 C -6.402,4.146 -6.836,3.838 -7.188,3.435 -7.541,3.031 -7.812,2.539 -7.999,1.959 -8.188,1.378 -8.281,0.725 -8.281,0 c 0,-0.732 0.093,-1.389 0.282,-1.97 0.187,-0.581 0.458,-1.073 0.811,-1.476 0.352,-0.404 0.786,-0.71 1.299,-0.921 0.514,-0.213 1.1,-0.319 1.758,-0.319 0.652,0 1.233,0.106 1.743,0.319 0.51,0.211 0.942,0.517 1.295,0.921 0.352,0.403 0.622,0.895 0.811,1.476 C -0.095,-1.389 0,-0.732 0,0 M 3.485,0 C 3.485,-1.063 3.302,-2.049 2.937,-2.963 2.569,-3.876 2.055,-4.67 1.39,-5.345 0.725,-6.02 -0.076,-6.549 -1.014,-6.932 -1.95,-7.314 -2.989,-7.506 -4.131,-7.506 c -1.141,0 -2.183,0.192 -3.123,0.574 -0.94,0.383 -1.745,0.912 -2.413,1.587 -0.668,0.675 -1.186,1.469 -1.551,2.382 -0.366,0.914 -0.55,1.9 -0.55,2.963 0,1.061 0.184,2.048 0.55,2.961 0.365,0.913 0.883,1.706 1.551,2.377 0.668,0.672 1.473,1.199 2.413,1.582 0.94,0.383 1.982,0.574 3.123,0.574 1.142,0 2.181,-0.193 3.117,-0.579 C -0.076,6.529 0.725,6 1.39,5.328 2.055,4.656 2.569,3.864 2.937,2.951 3.302,2.037 3.485,1.054 3.485,0" /></g><g
           transform="translate(126.998,24.5059)"
           id="g40"><path
             id="path42"
             style="fill:#edf2f9;fill-opacity:1;fill-rule:nonzero;stroke:none"
             d="M 0,0 C 0,0.725 -0.094,1.378 -0.282,1.959 -0.47,2.539 -0.74,3.031 -1.094,3.435 -1.445,3.838 -1.878,4.146 -2.388,4.361 -2.897,4.576 -3.479,4.684 -4.131,4.684 -4.789,4.684 -5.375,4.576 -5.889,4.361 -6.402,4.146 -6.835,3.838 -7.188,3.435 -7.54,3.031 -7.811,2.539 -7.999,1.959 -8.187,1.378 -8.281,0.725 -8.281,0 c 0,-0.732 0.094,-1.389 0.282,-1.97 0.188,-0.581 0.459,-1.073 0.811,-1.476 0.353,-0.404 0.786,-0.71 1.299,-0.921 0.514,-0.213 1.1,-0.319 1.758,-0.319 0.652,0 1.234,0.106 1.743,0.319 0.51,0.211 0.943,0.517 1.294,0.921 0.354,0.403 0.624,0.895 0.812,1.476 C -0.094,-1.389 0,-0.732 0,0 m 3.486,0 c 0,-1.063 -0.184,-2.049 -0.55,-2.963 C 2.57,-3.876 2.055,-4.67 1.391,-5.345 0.726,-6.02 -0.075,-6.549 -1.013,-6.932 c -0.936,-0.382 -1.975,-0.574 -3.118,-0.574 -1.141,0 -2.182,0.192 -3.122,0.574 -0.94,0.383 -1.745,0.912 -2.413,1.587 -0.668,0.675 -1.186,1.469 -1.552,2.382 -0.366,0.914 -0.549,1.9 -0.549,2.963 0,1.061 0.183,2.048 0.549,2.961 0.366,0.913 0.884,1.706 1.552,2.377 0.668,0.672 1.473,1.199 2.413,1.582 0.94,0.383 1.981,0.574 3.122,0.574 1.143,0 2.182,-0.193 3.118,-0.579 C -0.075,6.529 0.726,6 1.391,5.328 2.055,4.656 2.57,3.864 2.936,2.951 3.302,2.037 3.486,1.054 3.486,0" /></g><g
           transform="translate(136.9004,25.8955)"
           id="g44"><path
             id="path46"
             style="fill:#edf2f9;fill-opacity:1;fill-rule:nonzero;stroke:none"
             d="M 0,0 H 0.544 C 1.047,0 1.41,0.157 1.632,0.474 L 4.937,5.269 C 5.131,5.524 5.341,5.7 5.565,5.798 5.791,5.895 6.071,5.943 6.407,5.943 H 9.369 L 5.017,0.01 C 4.708,-0.399 4.375,-0.695 4.02,-0.876 4.275,-0.971 4.506,-1.103 4.715,-1.27 4.923,-1.438 5.117,-1.655 5.299,-1.925 L 9.73,-8.733 H 6.689 c -0.195,0 -0.361,0.012 -0.499,0.04 -0.137,0.026 -0.256,0.067 -0.358,0.12 C 5.732,-8.52 5.645,-8.454 5.57,-8.376 5.497,-8.3 5.426,-8.21 5.359,-8.11 l -3.324,5.108 c -0.121,0.189 -0.273,0.321 -0.459,0.398 -0.184,0.078 -0.434,0.116 -0.75,0.116 H 0 V -8.733 H -3.405 V 5.943 H 0 Z" /></g></g></g><g
       id="g48"><g
         clip-path="url(#clipPath54)"
         id="g50"><g
           id="g56"><g
             id="g58"><path
               id="path66"
               style="fill:url(#linearGradient64);stroke:none"
               d="m 7.682,39 c -2.201,0 -4,-1.799 -4,-4 v 0 -20 c 0,-2.2 1.799,-4 4,-4 v 0 h 19.999 c 2.201,0 4.001,1.8 4.001,4 v 0 20 c 0,2.201 -1.8,4 -4.001,4 v 0 z" /></g></g></g></g><g
       id="g68"><g
         clip-path="url(#clipPath74)"
         id="g70"><g
           transform="translate(19.8574,22.2549)"
           id="g76"><path
             id="path78"
             style="fill:#ffffff;fill-opacity:1;fill-rule:nonzero;stroke:none"
             d="M 0,0 V -7.13 H -4.352 V 0 l -6.793,11.621 h 3.834 c 0.377,0 0.676,-0.088 0.895,-0.264 0.219,-0.175 0.4,-0.401 0.547,-0.675 l 2.65,-5.457 c 0.225,-0.429 0.424,-0.83 0.6,-1.204 0.176,-0.373 0.332,-0.74 0.469,-1.099 0.129,0.368 0.279,0.739 0.451,1.112 0.172,0.373 0.369,0.771 0.592,1.191 l 2.625,5.457 c 0.06,0.111 0.132,0.222 0.218,0.334 0.086,0.112 0.188,0.213 0.303,0.302 0.117,0.09 0.248,0.163 0.4,0.219 0.149,0.057 0.315,0.084 0.495,0.084 h 3.861 z" /></g></g></g></g></svg>